<?xml version="1.0" standalone="no"?>
<!DOCTYPE svg PUBLIC "-//W3C//DTD SVG 20010904//EN"
 "http://www.w3.org/TR/2001/REC-SVG-20010904/DTD/svg10.dtd">
<svg version="1.0" xmlns="http://www.w3.org/2000/svg"
 width="139.000000pt" height="139.000000pt" viewBox="0 0 139.000000 139.000000"
 preserveAspectRatio="xMidYMid meet">
<metadata>
Created by potrace 1.11, written by Peter Selinger 2001-2013
</metadata>
<g transform="translate(0.000000,139.000000) scale(0.100000,-0.100000)"
fill="#000000" stroke="none">
<path d="M635 1316 c-22 -7 -54 -21 -70 -32 -21 -13 -47 -19 -91 -19 -72 0
-128 -31 -158 -87 -10 -19 -32 -40 -47 -47 -45 -20 -81 -74 -87 -130 l-4 -49
-59 -17 c-32 -10 -73 -30 -90 -44 l-32 -27 36 -34 36 -33 -21 -29 c-54 -77
-57 -174 -7 -254 23 -35 28 -53 24 -77 -8 -44 10 -121 39 -164 48 -70 142
-109 228 -92 41 7 45 6 78 -30 70 -76 148 -102 236 -76 47 13 59 14 109 0 93
-24 172 1 238 74 36 39 39 41 76 32 87 -19 187 23 238 101 24 36 28 52 29 119
1 62 7 88 29 133 24 49 27 65 22 116 -3 40 -14 76 -32 106 l-27 47 31 24 c17
13 31 31 31 39 0 19 -53 50 -117 69 -51 15 -51 15 -58 64 -7 52 -57 124 -95
136 -10 3 -27 21 -38 39 -11 18 -36 46 -57 61 -31 25 -46 29 -104 29 -38 1
-74 6 -82 12 -54 43 -142 61 -204 40z m151 -151 c46 -48 67 -54 102 -29 34 24
74 15 90 -21 21 -48 28 -58 43 -65 68 -32 74 -37 77 -66 2 -19 -3 -36 -12 -44
-31 -25 -12 -136 29 -168 13 -11 42 -22 64 -26 91 -14 123 -119 60 -198 -32
-40 -35 -58 -18 -107 17 -48 -3 -106 -44 -131 -41 -26 -76 -25 -131 2 -59 28
-89 16 -116 -47 -33 -77 -112 -107 -175 -65 -38 25 -70 25 -102 0 -56 -44
-141 -16 -176 58 -12 25 -34 53 -49 62 -26 14 -31 13 -71 -9 -58 -32 -110 -25
-151 20 -25 28 -28 37 -23 78 4 25 9 58 13 73 5 22 0 33 -24 55 -56 53 -67
104 -32 160 16 27 31 36 81 50 49 13 66 24 80 48 24 38 25 122 3 153 -25 37
-7 74 47 92 37 13 46 22 57 55 7 22 18 43 25 47 20 13 64 9 77 -7 21 -26 51
-17 101 30 41 38 54 45 89 45 36 0 48 -6 86 -45z"/>
<path d="M674 904 c-22 -29 -82 -46 -134 -38 -31 5 -37 2 -52 -25 -17 -30 -57
-54 -110 -66 l-28 -5 21 -53 c50 -129 172 -262 271 -296 51 -17 55 -17 108 1
68 23 144 87 203 171 38 54 87 154 87 177 0 4 -17 10 -38 14 -37 5 -112 64
-112 86 0 5 -31 6 -70 3 -68 -6 -70 -5 -98 25 l-29 31 -19 -25z m-95 -105 c37
-13 65 -60 57 -95 -16 -63 -96 -85 -141 -39 -44 43 -26 116 35 138 8 3 15 6
16 6 1 1 15 -4 33 -10z m290 0 c88 -31 67 -158 -27 -159 -94 -1 -111 130 -22
163 8 3 15 6 16 6 1 1 15 -4 33 -10z"/>
</g>
</svg>
